# xmcd
#
# Track frame offsets: 
#        151
#        17985
#        30474
#        44760
#        58750
#        75125
#        90813
#        103938
#        121213
#        142087
#        161303
#        181095
#        196556
#        207668
#        224495
#        235763
#        250655
#        266192
#        283405
#
# Disc length: 3988 seconds
#
# Revision: 6
# Processed by: cddbd v1.5.2PL0 Copyright (c) Steve Scherf et al.
# Submitted via: ExactAudioCopy v1.1
#
DISCID=0c0f9213
DTITLE=Teresa Teng - Teresa Teng - Forever Collection Vol. 4
DYEAR=2001
DGENRE=Blues
TTITLE0=You and Me
TTITLE1=You After the Twilgiht
TTITLE2=Fisherman
TTITLE3=If I Am Serious
TTITLE4=Drizzling
TTITLE5=Where Comes the Breeze
TTITLE6=Kitchen Smoke Curls Upward Again
TTITLE7=Deep in My Heart
TTITLE8=See You Tomorrow
TTITLE9=Amorous Rose
TTITLE10=Jin-Shang Cape
TTITLE11=Sweet Drizzle
TTITLE12=No Matter Who You Are
TTITLE13=God Would Memorize Our Love
TTITLE14=Ask The Heaven Without Words
TTITLE15=Night Mist
TTITLE16=Adoration
TTITLE17=Think of You Tonight
TTITLE18=Walk Up the Wind Frost
EXTD=YEAR: 2001
EXTT0=
EXTT1=
EXTT2=
EXTT3=
EXTT4=
EXTT5=
EXTT6=
EXTT7=
EXTT8=
EXTT9=
EXTT10=
EXTT11=
EXTT12=
EXTT13=
EXTT14=
EXTT15=
EXTT16=
EXTT17=
EXTT18=
PLAYORDER=
